<svg class="page_q-logo__WuVPe" xmlns="http://www.w3.org/2000/svg" width="55.277" height="51.209" version="1.1" viewBox="0 0 14.625 13.549" xml:space="preserve"><defs><path d="M1457.498 429.272H1879.654V734.2180000000001H1457.498z"></path><path d="M496.934 256.612H1261.5810000000001V340.754H496.934z"></path><path d="M421.524 481.465H1115.496V688.36H421.524z"></path><path d="M425.391 479.532H1280.041V756.0360000000001H425.391z"></path><path d="M102.481 150.821H607.5160000000001V400.85699999999997H102.481z"></path><path d="M102.481 150.821H607.5160000000001V400.85699999999997H102.481z"></path><path d="M102.481 150.821H607.5160000000001V400.85699999999997H102.481z"></path><path d="M102.481 150.821H607.5160000000001V400.85699999999997H102.481z"></path><path d="M102.481 150.821H607.5160000000001V400.85699999999997H102.481z"></path><path d="M102.481 150.821H607.5160000000001V400.85699999999997H102.481z"></path><path d="M102.481 150.821H607.5160000000001V400.85699999999997H102.481z"></path><path d="M102.481 150.821H607.5160000000001V400.85699999999997H102.481z"></path><path d="M102.481 150.821H607.5160000000001V400.85699999999997H102.481z"></path><path d="M102.481 150.821H607.5160000000001V400.85699999999997H102.481z"></path><path d="M102.481 150.821H607.5160000000001V400.85699999999997H102.481z"></path><path d="M102.481 150.821H607.5160000000001V400.85699999999997H102.481z"></path><path d="M102.481 150.821H607.5160000000001V400.85699999999997H102.481z"></path><path d="M102.481 150.821H607.5160000000001V400.85699999999997H102.481z"></path><path d="M102.481 150.821H607.5160000000001V400.85699999999997H102.481z"></path><path d="M102.481 150.821H607.5160000000001V400.85699999999997H102.481z"></path><path d="M496.934 256.612H1116.652V316.14300000000003H496.934z"></path><path d="M496.934 256.612H1261.5810000000001V340.754H496.934z"></path><path d="M496.934 256.612H1116.652V316.14300000000003H496.934z"></path><path d="M496.934 256.612H1269.315V385.22700000000003H496.934z"></path><path d="M496.934 256.612H1116.652V316.14300000000003H496.934z"></path><path d="M496.934 256.612H1185.112V390.318H496.934z"></path><path d="M496.934 256.612H1116.652V316.14300000000003H496.934z"></path><path d="M496.934 256.612H1261.5810000000001V340.754H496.934z"></path><path d="M496.934 256.612H1116.652V316.14300000000003H496.934z"></path><path d="M496.934 256.612H1267.393V316.43H496.934z"></path><path d="M496.934 256.612H1267.089V317.797H496.934z"></path><path d="M496.934 256.612H1159.045V336.939H496.934z"></path><path d="M496.934 256.612H1116.652V316.14300000000003H496.934z"></path><path d="M496.934 256.612H1267.089V317.797H496.934z"></path><path d="M496.934 256.612H1159.045V336.939H496.934z"></path><path d="M496.934 256.612H1116.652V316.14300000000003H496.934z"></path><path d="M496.934 256.612H1266.047V375.61H496.934z"></path><path d="M496.934 256.612H1116.652V316.14300000000003H496.934z"></path><path d="M496.934 256.612H1266.047V375.61H496.934z"></path><path d="M496.934 256.612H1116.652V316.14300000000003H496.934z"></path><path d="M496.934 256.612H1265.553V361.877H496.934z"></path><path d="M496.934 256.612H1185.112V390.318H496.934z"></path><path d="M496.934 256.612H1116.652V316.14300000000003H496.934z"></path><path d="M496.934 256.612H1265.553V361.877H496.934z"></path><path d="M496.934 256.612H1185.112V390.318H496.934z"></path><path d="M496.934 256.612H1116.652V316.14300000000003H496.934z"></path><path d="M496.934 256.612H1265.553V361.877H496.934z"></path><path d="M496.934 256.612H1185.112V390.318H496.934z"></path><path d="M496.934 256.612H1185.112V390.318H496.934z"></path><path d="M496.934 256.612H1185.112V390.318H496.934z"></path><path d="M496.934 256.612H1116.652V316.14300000000003H496.934z"></path><path d="M496.934 256.612H1265.553V361.877H496.934z"></path><path d="M496.934 256.612H1185.112V390.318H496.934z"></path><path d="M496.934 256.612H1116.652V316.14300000000003H496.934z"></path><path d="M496.934 256.612H1265.553V361.877H496.934z"></path><path d="M496.934 256.612H1185.112V390.318H496.934z"></path><path d="M496.934 256.612H1116.652V316.14300000000003H496.934z"></path><path d="M496.934 256.612H1265.553V361.877H496.934z"></path><path d="M496.934 256.612H1185.112V390.318H496.934z"></path><path d="M496.934 256.612H1116.652V316.14300000000003H496.934z"></path><path d="M496.934 256.612H1265.553V361.877H496.934z"></path><path d="M496.934 256.612H1185.112V390.318H496.934z"></path><path d="M496.934 256.612H1116.652V316.14300000000003H496.934z"></path><path d="M496.934 256.612H1265.553V361.877H496.934z"></path></defs><g transform="translate(-53.53 -8.756)"><g fill="#ff0061" fill-opacity="1" stroke-linejoin="round" color="#000" paint-order="markers fill stroke" transform="matrix(.508 0 0 .508 -33.563 -38.541)"><path d="M184.858 93.105c-2.872-.02-5.766.88-8.2 2.749-5.565 4.27-6.867 12.162-2.97 17.994 3.69 5.524 10.874 7.442 16.785 4.65l-2.295-2.295a10.318 10.318 0 01-11.997-4.021 10.32 10.32 0 012.303-13.948 10.32 10.32 0 0114.069 1.385 10.32 10.32 0 01-.463 14.13l2.12 2.12c4.96-4.96 5.223-12.953.599-18.226a13.306 13.306 0 00-8.723-4.473c-.408-.04-.818-.062-1.228-.065z"></path><path d="M183.8 107.583l12.194 12.194h4.242l-12.194-12.194z"></path></g></g></svg>